<svg width="19" height="16" viewBox="0 0 19 16" fill="none" xmlns="http://www.w3.org/2000/svg">
<path d="M8.9244 2.458C8.85298 2.39435 8.79714 2.31948 8.76008 2.23766C8.72301 2.15584 8.70545 2.06868 8.70839 1.98114C8.71133 1.89361 8.73472 1.80742 8.77721 1.7275C8.81971 1.64757 8.88048 1.57548 8.95606 1.51533C9.03165 1.45519 9.12056 1.40817 9.21772 1.37696C9.31488 1.34575 9.41838 1.33096 9.52233 1.33343C9.62628 1.33591 9.72863 1.3556 9.82354 1.39139C9.91845 1.42718 10.0041 1.47835 10.0755 1.542L16.8046 7.542C16.9436 7.66578 17.021 7.82966 17.021 8C17.021 8.17034 16.9436 8.33422 16.8046 8.458L10.0755 14.4587C10.0045 14.5237 9.91894 14.5762 9.82368 14.6132C9.72842 14.6501 9.62539 14.6708 9.52058 14.6739C9.41577 14.677 9.31126 14.6626 9.21313 14.6314C9.115 14.6003 9.0252 14.553 8.94894 14.4924C8.87269 14.4317 8.8115 14.3589 8.76894 14.2782C8.72637 14.1975 8.70328 14.1105 8.70099 14.0222C8.69871 13.9339 8.71728 13.8461 8.75563 13.7639C8.79399 13.6817 8.85135 13.6067 8.9244 13.5433L15.1406 8L8.9244 2.458Z" fill="#545454"/>
</svg>
